<?xml version="1.0" encoding="utf-8"?>
<svg version="1.1" xmlns:xlink="http://www.w3.org/1999/xlink" width="39px" height="29px" xmlns="http://www.w3.org/2000/svg">
  <g transform="matrix(1 0 0 1 -318 -413 )">
    <path d="M 34.9732500000002 28.4260416666666  C 31.4924999999999 27.1774305555557  28.8404999999999 24.7708333333334  28.8404999999999 24.7708333333334  C 26.286 25.6972222222223  22.35675 26.2711805555557  19.47075 26.2711805555557  C 16.5847499999999 26.2711805555557  12.6554999999999 25.6972222222223  10.101 24.7708333333334  C 10.101 24.7708333333334  7.55625 27.1774305555557  4.02674999999981 28.4159722222223  C 3.80250000000024 28.4965277777779  3.88050000000017 28.8388888888891  4.11449999999995 28.8086805555556  C 6.31800000000017 28.546875  8.03399999999979 28.1541666666667  10.101 27.6003472222222  C 12.3434999999999 28.5065972222222  16.60425 29  19.47075 29  C 22.3372500000002 29  26.6955000000001 28.617361111111  28.8404999999999 27.6003472222222  C 30.9367499999999 28.164236111111  32.6234999999997 28.5670138888889  34.8855 28.8187500000002  C 35.1194999999998 28.8489583333334  35.1974999999998 28.5065972222222  34.9732500000002 28.4260416666666  Z M 39 10.4118055555557  C 39 9.67673611111086  38.58075 9.0524305555557  37.9762500000001 8.76041666666657  L 19.8217500000002 0.151041666666567  C 19.6169999999999 0.050347222222089  19.3732499999999 0.050347222222089  19.1685000000002 0.151041666666567  L 1.02374999999988 8.76041666666657  C 0.419249999999988 9.0524305555557  0 9.67673611111086  0 10.4118055555557  C 0 10.6534722222224  0.0487500000001773 10.875  0.126750000000106 11.0864583333333  L 5.46000000000006 24.7708333333334  C 8.14125000000006 24.7708333333334  10.9882500000001 22.5555555555555  10.9882500000001 22.5555555555555  C 12.74325 23.4618055555555  16.1655000000002 24.2774305555556  18.7200000000001 24.4284722222222  C 18.9930000000002 24.4486111111111  19.25625 24.4486111111111  19.5 24.4486111111111  C 19.74375 24.4486111111111  20.0069999999998 24.4385416666668  20.2799999999999 24.4284722222222  C 22.8344999999998 24.2774305555556  26.25675 23.4718750000001  28.0117499999999 22.5555555555555  C 28.0117499999999 22.5555555555555  30.8587499999999 24.7708333333334  33.5399999999999 24.7708333333334  L 38.8732499999999 11.0864583333333  C 38.9512499999998 10.875  39 10.6534722222224  39 10.4118055555557  Z M 16.3800000000002 9.0625  C 16.3800000000002 10.2909722222223  15.8535000000002 11.2777777777779  15.2100000000001 11.2777777777779  C 14.5664999999999 11.2777777777779  14.0399999999999 10.2909722222223  14.0399999999999 9.0625  C 14.0399999999999 7.83402777777767  14.5664999999999 6.84722222222209  15.2100000000001 6.84722222222209  C 15.8535000000002 6.84722222222209  16.3800000000002 7.83402777777767  16.3800000000002 9.0625  Z M 24.9600000000001 9.0625  C 24.9600000000001 10.2909722222223  24.4335000000001 11.2777777777779  23.7899999999999 11.2777777777779  C 23.1464999999998 11.2777777777779  22.6199999999998 10.2909722222223  22.6199999999998 9.0625  C 22.6199999999998 7.83402777777767  23.1464999999998 6.84722222222209  23.7899999999999 6.84722222222209  C 24.4335000000001 6.84722222222209  24.9600000000001 7.83402777777767  24.9600000000001 9.0625  Z " fill-rule="nonzero" fill="#606266" stroke="none" transform="matrix(1 0 0 1 318 413 )" />
  </g>
</svg>