<?xml version="1.0" encoding="utf-8"?>
<svg version="1.1" xmlns:xlink="http://www.w3.org/1999/xlink" width="29px" height="17px" xmlns="http://www.w3.org/2000/svg">
  <g transform="matrix(1 0 0 1 -323 -402 )">
    <path d="M 28.9251612903226 16.520994475138  L 27.2132258064518 7.41988950276239  L 27.2132258064518 7.41049723756917  C 26.6893548387098 4.91215469613254  25.5761290322583 3.00552486187859  23.4806451612902 3.00552486187859  L 20.2438709677419 3.00552486187859  L 20.0567741935485 2.25414364640887  C 19.7200000000001 0.929834254143788  18.5225806451614 0  17.1567741935483 0  L 11.8245161290324 0  C 10.4587096774193 0  9.26129032258054 0.929834254143788  8.92451612903217 2.26353591160208  L 8.73741935483879 3.00552486187859  L 5.51935483870982 3.00552486187859  C 3.37709677419334 3.00552486187859  2.23580645161288 4.949723756906  1.79612903225786 7.41988950276239  L 0.0935483870966891 16.5116022099448  C 0.0374193548386756 16.8121546961327  0.336774193548368 17.046961325967  0.617419354838722 16.9248618784531  L 2.98419354838696 15.835359116022  C 3.09645161290299 15.7883977900553  3.17129032258063 15.6850828729281  3.19935483870963 15.5629834254143  L 4.71483870967743 7.52320441988954  C 4.94870967741944 6.51823204419884  5.39774193548384 6.02044198895039  6.22096774193556 6  L 22.7883870967741 6  C 23.6209677419355 6.02044198895039  24.0138709677419 6.4900552486189  24.2945161290322 7.52320441988954  L 25.81 15.5629834254143  C 25.8287096774194 15.6850828729281  25.9129032258067 15.7883977900553  26.0251612903227 15.835359116022  L 28.4012903225806 16.9342541436463  C 28.681935483871 17.0657458563537  28.9812903225807 16.8215469613259  28.9251612903226 16.520994475138  Z " fill-rule="nonzero" fill="#606266" stroke="none" transform="matrix(1 0 0 1 323 402 )" />
  </g>
</svg>