<?xml version="1.0" encoding="utf-8"?>
<svg version="1.1" xmlns:xlink="http://www.w3.org/1999/xlink" width="77px" height="29px" xmlns="http://www.w3.org/2000/svg">
  <defs>
    <mask fill="white" id="clip20">
      <path d="M 0 29  L 0 0  L 36.1084337349398 0  L 73 0  C 75.24 0  77 1.76000000000001  77 4  L 77 25  C 77 27.24  75.24 29  73 29  L 0 29  Z " fill-rule="evenodd" />
    </mask>
  </defs>
  <g transform="matrix(1 0 0 1 -541 -118 )">
    <path d="M 0 29  L 0 0  L 36.1084337349398 0  L 73 0  C 75.24 0  77 1.76000000000001  77 4  L 77 25  C 77 27.24  75.24 29  73 29  L 0 29  Z " fill-rule="nonzero" fill="#5ea7ea" stroke="none" transform="matrix(1 0 0 1 541 118 )" />
    <path d="M 0 29  L 0 0  L 36.1084337349398 0  L 73 0  C 75.24 0  77 1.76000000000001  77 4  L 77 25  C 77 27.24  75.24 29  73 29  L 0 29  Z " stroke-width="2" stroke="#409eff" fill="none" transform="matrix(1 0 0 1 541 118 )" mask="url(#clip20)" />
  </g>
</svg>