<?xml version="1.0" encoding="utf-8"?>
<svg version="1.1" xmlns:xlink="http://www.w3.org/1999/xlink" width="10px" height="10px" xmlns="http://www.w3.org/2000/svg">
  <g transform="matrix(1 0 0 1 -216 -286 )">
    <path d="M 10 0.833333333333333  C 10 0.372395833333333  9.62760416666667 0  9.16666666666667 0  L 0.833333333333333 0  C 0.372395833333333 0  0 0.372395833333333  0 0.833333333333333  L 0 9.16666666666667  C 0 9.62760416666667  0.372395833333333 10  0.833333333333333 10  L 9.16666666666667 10  C 9.62760416666667 10  10 9.62760416666667  10 9.16666666666667  L 10 0.833333333333333  Z M 9.27083333333333 0.9375  L 9.27083333333333 9.0625  C 9.27083333333333 9.17708333333333  9.17708333333333 9.27083333333333  9.0625 9.27083333333333  L 0.9375 9.27083333333333  C 0.822916666666667 9.27083333333333  0.729166666666667 9.17708333333333  0.729166666666667 9.0625  L 0.729166666666667 0.9375  C 0.729166666666667 0.822916666666667  0.822916666666667 0.729166666666667  0.9375 0.729166666666667  L 9.0625 0.729166666666667  C 9.17708333333333 0.729166666666667  9.27083333333333 0.822916666666667  9.27083333333333 0.9375  Z " fill-rule="nonzero" fill="#606266" stroke="none" transform="matrix(1 0 0 1 216 286 )" />
  </g>
</svg>