<?xml version="1.0" encoding="utf-8"?>
<svg version="1.1" xmlns:xlink="http://www.w3.org/1999/xlink" width="6px" height="4px" xmlns="http://www.w3.org/2000/svg">
  <g transform="matrix(1 0 0 1 -218 -289 )">
    <path d="M 5.96388888888885 0.616867469879533  C 6.00277777777774 0.575903614457834  6.00277777777774 0.51566265060242  5.96111111111112 0.479518072289186  L 5.4722222222222 0.0433734939758954  C 5.4527777777778 0.0240963855421796  5.4222222222222 0.0144578313253218  5.39444444444443 0.0144578313253218  C 5.36388888888892 0.0144578313253218  5.33611111111114 0.0240963855421796  5.31666666666666 0.0433734939758954  L 1.92777777777781 3.00481927710846  L 0.69444444444445 1.93493975903612  C 0.67222222222223 1.91566265060241  0.644444444444456 1.90602409638555  0.616666666666681 1.90602409638555  C 0.588888888888906 1.90602409638555  0.561111111111131 1.91566265060241  0.538888888888912 1.93493975903612  L 0.0444444444444397 2.36385542168675  C 0 2.40240963855425  0 2.46265060240967  0.0444444444444397 2.5012048192771  L 1.59999999999999 3.85060240963853  C 1.69999999999998 3.93734939759039  1.82222222222219 3.98795180722895  1.92499999999999 3.98795180722895  C 2.07222222222224 3.98795180722895  2.20000000000001 3.89397590361449  2.24722222222218 3.85542168674699  L 2.25 3.85542168674699  L 5.96388888888885 0.616867469879533  Z " fill-rule="nonzero" fill="#606266" stroke="none" transform="matrix(1 0 0 1 218 289 )" />
  </g>
</svg>