<?xml version="1.0" encoding="utf-8"?>
<svg version="1.1" xmlns:xlink="http://www.w3.org/1999/xlink" width="16px" height="9px" xmlns="http://www.w3.org/2000/svg">
  <g transform="matrix(1 0 0 1 -363 -219 )">
    <path d="M 1.94761904761905 0.371938775510163  L 8 6.20357142857143  L 14.0476190476191 0.367346938775536  C 14.4952380952382 -0.0642857142857106  15.2190476190476 -0.0642857142857106  15.6619047619048 0.367346938775536  C 16.1047619047618 0.798979591836692  16.1047619047618 1.49693877551016  15.6619047619048 1.92857142857143  L 8.80952380952393 8.54081632653063  C 8.37619047619061 8.95867346938777  7.6809523809524 8.96785714285715  7.23333333333335 8.57295918367349  L 0.333333333333333 1.93316326530617  C 0.109523809523883 1.71734693877555  0 1.43265306122445  0 1.15255102040811  C 0 0.872448979591894  0.109523809523883 0.587755102040796  0.333333333333333 0.371938775510163  C 0.780952380952385 -0.059693877550974  1.50476190476184 -0.059693877550974  1.94761904761905 0.371938775510163  Z " fill-rule="nonzero" fill="#606266" stroke="none" transform="matrix(1 0 0 1 363 219 )" />
  </g>
</svg>