<?xml version="1.0" encoding="utf-8"?>
<svg version="1.1" xmlns:xlink="http://www.w3.org/1999/xlink" width="10px" height="5px" xmlns="http://www.w3.org/2000/svg">
  <g transform="matrix(1 0 0 1 -521 -566 )">
    <path d="M 9.72926829268295 0.0595528455284011  L 9.9019512195122 0.20325203252033  C 9.99716632642267 0.282621921033789  9.99716632642267 0.411280517990728  9.9019512195122 0.490650406504187  L 5.15926829268292 4.44308943089425  C 5.11351993728235 4.48125549655098  5.05144128002416 4.50270053992199  4.98670731707315 4.50270053992199  C 4.9219733541222 4.50270053992199  4.85989469686396 4.48125549655098  4.81414634146341 4.44308943089425  L 0.0714634146341666 0.490650406504187  C -0.0237516922763064 0.411280517990728  -0.0237516922763064 0.282621921033789  0.0714634146341666 0.20325203252033  L 0.243902439024396 0.0595528455284011  C 0.339146305240433 -0.0197930768968035  0.493536621588845 -0.0197930768968035  0.588780487804883 0.0595528455284011  L 4.98658536585364 3.72439024390246  L 9.38463414634148 0.0595528455284011  C 9.47987801255752 -0.0197930768968035  9.6342683289059 -0.0197930768968035  9.72951219512194 0.0595528455284011  Z " fill-rule="nonzero" fill="#909399" stroke="none" fill-opacity="0.647058823529412" transform="matrix(1 0 0 1 521 566 )" />
  </g>
</svg>