<?xml version="1.0" encoding="utf-8"?>
<svg version="1.1" xmlns:xlink="http://www.w3.org/1999/xlink" width="13px" height="16px" xmlns="http://www.w3.org/2000/svg">
  <g transform="matrix(1 0 0 1 -400 -123 )">
    <path d="M 12.0767045454545 2.66666666666667  L 0.697088068181818 2.66666666666667  L 1.78657670454545 14.7791666666667  C 1.78657670454545 15.4541666666667  2.39133522727273 16  3.13920454545455 16  L 9.6484375 16  C 10.3963068181818 16  11.0010653409091 15.4541666666667  11.0010653409091 14.7791666666667  L 12.0767045454545 2.66666666666667  Z M 4.40411931818182 13.7083333333333  L 3.54083806818182 13.7083333333333  L 3.23153409090909 4  L 4.08558238636364 4  L 4.40411931818182 13.7083333333333  Z M 6.78622159090909 4  L 6.78622159090909 13.7083333333333  L 5.95525568181818 13.7083333333333  L 5.95525568181818 4  L 6.78622159090909 4  Z M 9.50994318181818 4  L 9.20063920454546 13.7083333333333  L 8.34197443181818 13.7083333333333  L 8.65589488636364 4  L 9.50994318181818 4  Z M 12.7414772727273 2.25  C 12.7414772727273 1.51666666666667  12.1690340909091 1.16666666666667  11.3565340909091 1.16666666666667  L 9.69460227272727 1.16666666666667  L 8.48046875 0.208333333333333  C 8.30965909090909 0.075  8.09268465909091 0  7.87109375 0  L 4.87961647727273 0  C 4.65340909090909 0  4.43181818181818 0.075  4.26100852272727 0.208333333333333  L 3.046875 1.16666666666667  L 1.38494318181818 1.16666666666667  C 0.572443181818182 1.16666666666667  0 1.51666666666667  0 2.25  L 12.7414772727273 2.25  Z " fill-rule="nonzero" fill="#f0f5fd" stroke="none" transform="matrix(1 0 0 1 400 123 )" />
  </g>
</svg>