<?xml version="1.0" encoding="utf-8"?>
<svg version="1.1" xmlns:xlink="http://www.w3.org/1999/xlink" width="17px" height="15px" xmlns="http://www.w3.org/2000/svg">
  <g transform="matrix(1 0 0 1 -207 -123 )">
    <path d="M 16.8618750000001 8.12379807692331  C 17.0460416666666 7.93269230769257  17.0460416666666 7.62259615384621  16.8583333333333 7.43149038461546  C 16.7662499999999 7.33774038461565  16.6458333333333 7.28725961538483  16.5183333333334 7.28725961538483  C 16.3908333333333 7.28725961538483  16.2704166666667 7.33774038461565  16.1783333333333 7.43149038461546  L 15.7179166666666 7.90024038461533  C 15.8702083333333 5.6718750000001  15.0272916666666 3.48317307692316  13.4052083333333 1.9507211538461  C 12.0735416666667 0.69230769230785  10.3310416666667 0  8.50354166666661 0  C 7.55791666666665 0  6.63354166666658 0.183894230769309  5.76229166666669 0.544471153846101  C 4.85916666666669 0.919471153846154  4.05166666666665 1.46754807692297  3.36458333333327 2.1778846153848  C 2.89708333333331 2.66105769230753  2.49333333333338 3.20552884615403  2.17458333333339 3.79326923076913  C 2.10729166666673 3.91586538461546  2.09312500000008 4.0600961538461  2.13208333333342 4.19350961538459  C 2.17104166666658 4.32692307692308  2.26666666666673 4.43870192307687  2.38708333333338 4.49999999999984  C 2.45791666666665 4.5360576923078  2.53583333333335 4.55408653846138  2.61375000000004 4.55408653846138  C 2.79791666666673 4.55408653846138  2.96437499999996 4.45312500000013  3.05291666666669 4.29086538461552  C 3.33270833333335 3.77524038461554  3.68333333333327 3.29927884615385  4.09416666666661 2.8810096153848  C 4.68916666666665 2.27524038461533  5.37979166666665 1.80649038461546  6.15187499999996 1.48557692307695  C 6.89916666666658 1.17548076923059  7.68895833333335 1.0204326923078  8.49645833333338 1.0204326923078  C 9.30750000000004 1.0204326923078  10.0972916666666 1.17548076923059  10.8445833333334 1.48557692307695  C 11.6166666666667 1.80649038461546  12.3108333333333 2.27524038461533  12.9058333333334 2.88461538461552  C 13.6247916666667 3.62019230769236  14.1595833333333 4.52884615384636  14.4570833333334 5.51682692307692  C 14.705 6.34254807692326  14.7829166666667 7.22235576923074  14.6908333333333 8.08413461538464  L 14.0214583333334 7.4170673076922  C 13.9329166666667 7.33052884615382  13.8160416666666 7.280048076923  13.6920833333333 7.280048076923  C 13.5681250000001 7.280048076923  13.4477083333334 7.33052884615382  13.3591666666667 7.42067307692331  C 13.175 7.60817307692295  13.175 7.91105769230788  13.3591666666667 8.0985576923079  L 14.875 9.64543269230782  C 14.9422916666667 9.71394230769223  15.0308333333334 9.75000000000018  15.1229166666667 9.75000000000018  C 15.2150000000001 9.75000000000018  15.3035416666666 9.71394230769223  15.3708333333333 9.64543269230782  L 16.8618750000001 8.12379807692331  Z M 14.8714583333334 10.5793269230768  C 14.8289583333334 10.4459134615384  14.7368750000001 10.3341346153846  14.6129166666666 10.2728365384616  C 14.5420833333333 10.236778846154  14.4641666666667 10.2187500000001  14.38625 10.2187500000001  C 14.2020833333333 10.2187500000001  14.035625 10.3197115384617  13.9470833333333 10.4819711538463  C 13.6672916666667 10.9975961538463  13.3166666666667 11.473557692308  12.9058333333334 11.891826923077  C 12.3108333333333 12.4975961538461  11.6202083333333 12.9699519230771  10.8445833333334 13.2872596153849  C 10.0972916666666 13.5973557692308  9.30750000000004 13.752403846154  8.49645833333338 13.752403846154  C 7.68541666666673 13.752403846154  6.89562499999996 13.5973557692308  6.15187499999996 13.2872596153849  C 5.37979166666665 12.9663461538464  4.68562500000004 12.4975961538461  4.090625 11.891826923077  C 2.75895833333338 10.5288461538464  2.10729166666673 8.61418269230788  2.30916666666669 6.70312500000005  L 2.96083333333335 7.37019230769249  C 3.04583333333327 7.45673076923087  3.15916666666669 7.50360576923098  3.27958333333335 7.50360576923098  C 3.4 7.50360576923098  3.51333333333342 7.45673076923087  3.59833333333335 7.37019230769249  L 3.64437499999992 7.32331730769239  C 3.81791666666658 7.14663461538451  3.81791666666658 6.85456730769252  3.64437499999992 6.67788461538464  L 2.125 5.127403846154  C 2.05770833333335 5.0588942307692  1.96916666666662 5.02283653846164  1.87708333333327 5.02283653846164  C 1.78499999999992 5.02283653846164  1.69645833333338 5.0588942307692  1.62916666666673 5.127403846154  L 0.141666666666731 6.65264423076923  C -0.0460416666665765 6.84374999999997  -0.0460416666665765 7.15384615384634  0.141666666666731 7.34495192307708  C 0.233750000000077 7.4387019230769  0.354166666666731 7.48918269230772  0.481666666666615 7.48918269230772  C 0.609166666666692 7.48918269230772  0.729583333333346 7.4387019230769  0.821666666666693 7.34495192307708  L 1.28208333333342 6.8725961538461  C 1.21833333333338 7.8028846153848  1.328125 8.74759615384636  1.60083333333342 9.63100961538456  C 1.95145833333335 10.7632211538462  2.55 11.7692307692307  3.38229166666673 12.6165865384617  C 4.07291666666673 13.3233173076924  4.87687499999996 13.8677884615385  5.77645833333335 14.2427884615386  C 6.64416666666662 14.6033653846154  7.56145833333327 14.783653846154  8.5 14.783653846154  C 9.43854166666673 14.783653846154  10.3558333333334 14.5997596153847  11.2235416666667 14.2427884615386  C 12.123125 13.8713942307693  12.9270833333333 13.3233173076924  13.6177083333333 12.6165865384617  C 14.0958333333333 12.1298076923079  14.503125 11.5781249999999  14.8289583333334 10.9795673076923  C 14.8962500000001 10.8569711538464  14.9104166666667 10.7127403846153  14.8714583333334 10.5793269230768  Z " fill-rule="nonzero" fill="#ffffff" stroke="none" transform="matrix(1 0 0 1 207 123 )" />
  </g>
</svg>