<?xml version="1.0" encoding="utf-8"?>
<svg version="1.1" xmlns:xlink="http://www.w3.org/1999/xlink" width="16px" height="16px" xmlns="http://www.w3.org/2000/svg">
  <g transform="matrix(1 0 0 1 -307 -124 )">
    <path d="M 16 13.775  C 16 12.5458333333333  15.0041666666667 11.55  13.775 11.55  C 12.5458333333333 11.55  11.55 12.5458333333333  11.55 13.775  C 11.55 15.0041666666667  12.5458333333333 16  13.775 16  C 15.0041666666667 16  16 15.0041666666667  16 13.775  Z M 10.225 13.775  C 10.225 12.5458333333333  9.22916666666667 11.55  8 11.55  C 6.77083333333333 11.55  5.775 12.5458333333333  5.775 13.775  C 5.775 15.0041666666667  6.77083333333333 16  8 16  C 9.22916666666667 16  10.225 15.0041666666667  10.225 13.775  Z M 4.45 13.775  C 4.45 12.5458333333333  3.45416666666667 11.55  2.225 11.55  C 0.995833333333333 11.55  0 12.5458333333333  0 13.775  C 0 15.0041666666667  0.995833333333333 16  2.225 16  C 3.45416666666667 16  4.45 15.0041666666667  4.45 13.775  Z M 16 8  C 16 6.77083333333333  15.0041666666667 5.775  13.775 5.775  C 12.5458333333333 5.775  11.55 6.77083333333333  11.55 8  C 11.55 9.22916666666667  12.5458333333333 10.225  13.775 10.225  C 15.0041666666667 10.225  16 9.22916666666667  16 8  Z M 10.225 8  C 10.225 6.77083333333333  9.22916666666667 5.775  8 5.775  C 6.77083333333333 5.775  5.775 6.77083333333333  5.775 8  C 5.775 9.22916666666667  6.77083333333333 10.225  8 10.225  C 9.22916666666667 10.225  10.225 9.22916666666667  10.225 8  Z M 4.45 8  C 4.45 6.77083333333333  3.45416666666667 5.775  2.225 5.775  C 0.995833333333333 5.775  0 6.77083333333333  0 8  C 0 9.22916666666667  0.995833333333333 10.225  2.225 10.225  C 3.45416666666667 10.225  4.45 9.22916666666667  4.45 8  Z M 16 2.225  C 16 0.995833333333333  15.0041666666667 0  13.775 0  C 12.5458333333333 0  11.55 0.995833333333333  11.55 2.225  C 11.55 3.45416666666667  12.5458333333333 4.45  13.775 4.45  C 15.0041666666667 4.45  16 3.45416666666667  16 2.225  Z M 10.225 2.225  C 10.225 0.995833333333333  9.22916666666667 0  8 0  C 6.77083333333333 0  5.775 0.995833333333333  5.775 2.225  C 5.775 3.45416666666667  6.77083333333333 4.45  8 4.45  C 9.22916666666667 4.45  10.225 3.45416666666667  10.225 2.225  Z M 4.45 2.225  C 4.45 0.995833333333333  3.45416666666667 0  2.225 0  C 0.995833333333333 0  0 0.995833333333333  0 2.225  C 0 3.45416666666667  0.995833333333333 4.45  2.225 4.45  C 3.45416666666667 4.45  4.45 3.45416666666667  4.45 2.225  Z " fill-rule="nonzero" fill="#ffffff" stroke="none" transform="matrix(1 0 0 1 307 124 )" />
  </g>
</svg>