<?xml version="1.0" encoding="utf-8"?>
<svg version="1.1" xmlns:xlink="http://www.w3.org/1999/xlink" width="13px" height="13px" xmlns="http://www.w3.org/2000/svg">
  <g transform="matrix(1 0 0 1 -971 -124 )">
    <path d="M 13 6.5  C 13 2.90937500000003  10.090625 0  6.5 0  C 2.90937500000003 0  0 2.90937500000003  0 6.5  C 0 10.090625  2.90937500000003 13  6.5 13  C 10.090625 13  13 10.090625  13 6.5  Z M 7.03749999999996 8.85625  C 7.03749999999996 9.21875000000004  6.74062500000005 9.50000000000009  6.36562499999998 9.50000000000009  C 5.99687500000003 9.50000000000009  5.69687499999996 9.21875000000004  5.69687499999996 8.85625  C 5.69687499999996 8.49687499999991  5.99687500000003 8.21249999999991  6.36562499999998 8.21249999999991  C 6.73749999999999 8.21249999999991  7.03749999999996 8.49374999999995  7.03749999999996 8.85625  Z M 8.49999999999996 5.08124999999995  C 8.49999999999996 5.70312499999997  8.19999999999999 6.13125000000004  7.62187500000003 6.47187500000001  C 7.07812499999996 6.78749999999995  6.89374999999998 7.01874999999994  6.89374999999998 7.41875000000003  L 6.89374999999998 7.66562499999999  L 5.809375 7.66562499999999  L 5.80000000000004 7.39687499999995  C 5.74687500000002 6.75312500000006  5.971875 6.35312499999997  6.53750000000005 6.02187500000006  C 7.06562500000005 5.70624999999992  7.28749999999997 5.50625000000008  7.28749999999997 5.11875  C 7.28749999999997 4.73124999999992  6.91250000000001 4.44687499999992  6.44687499999999 4.44687499999992  C 5.97499999999995 4.44687499999992  5.63437499999999 4.753125  5.60937499999995 5.21562499999997  L 4.50000000000004 5.21562499999997  C 4.52187500000001 4.20937500000003  5.26562500000003 3.49687499999995  6.52187499999998 3.49687499999995  C 7.69374999999997 3.49687499999995  8.49999999999996 4.14687499999995  8.49999999999996 5.08124999999995  Z " fill-rule="nonzero" fill="#606266" stroke="none" transform="matrix(1 0 0 1 971 124 )" />
  </g>
</svg>