<?xml version="1.0" encoding="utf-8"?>
<svg version="1.1" xmlns:xlink="http://www.w3.org/1999/xlink" width="24px" height="22px" xmlns="http://www.w3.org/2000/svg">
  <defs>
    <mask fill="white" id="clip1">
      <path d="M 14.1571428571428 11.3039473684209  C 13.7928571428572 11.6730263157895  13.2071428571428 11.6730263157895  12.8428571428572 11.3039473684209  C 12.4785714285715 10.9348684210527  12.4785714285715 10.3414473684211  12.8428571428572 9.97236842105258  L 22.3928571428571 0.296710526315792  C 22.0142857142857 0.108552631578959  21.5928571428572 0  21.1428571428571 0  L 2.85714285714289 0  C 1.28571428571422 0  0 1.30263157894728  0 2.8947368421052  L 0 19.1052631578948  C 0 20.6973684210527  1.28571428571422 22  2.85714285714289 22  L 21.1428571428571 22  C 22.7142857142858 22  24 20.6973684210527  24 19.1052631578948  L 24 2.8947368421052  C 24 2.43881578947367  23.8928571428571 2.01184210526321  23.7071428571428 1.62828947368416  L 14.1571428571428 11.3039473684209  Z " fill-rule="evenodd" />
    </mask>
  </defs>
  <g transform="matrix(1 0 0 1 -486 -18 )">
    <path d="M 14.1571428571428 11.3039473684209  C 13.7928571428572 11.6730263157895  13.2071428571428 11.6730263157895  12.8428571428572 11.3039473684209  C 12.4785714285715 10.9348684210527  12.4785714285715 10.3414473684211  12.8428571428572 9.97236842105258  L 22.3928571428571 0.296710526315792  C 22.0142857142857 0.108552631578959  21.5928571428572 0  21.1428571428571 0  L 2.85714285714289 0  C 1.28571428571422 0  0 1.30263157894728  0 2.8947368421052  L 0 19.1052631578948  C 0 20.6973684210527  1.28571428571422 22  2.85714285714289 22  L 21.1428571428571 22  C 22.7142857142858 22  24 20.6973684210527  24 19.1052631578948  L 24 2.8947368421052  C 24 2.43881578947367  23.8928571428571 2.01184210526321  23.7071428571428 1.62828947368416  L 14.1571428571428 11.3039473684209  Z " fill-rule="nonzero" fill="#ffffff" stroke="none" transform="matrix(1 0 0 1 486 18 )" />
    <path d="M 14.1571428571428 11.3039473684209  C 13.7928571428572 11.6730263157895  13.2071428571428 11.6730263157895  12.8428571428572 11.3039473684209  C 12.4785714285715 10.9348684210527  12.4785714285715 10.3414473684211  12.8428571428572 9.97236842105258  L 22.3928571428571 0.296710526315792  C 22.0142857142857 0.108552631578959  21.5928571428572 0  21.1428571428571 0  L 2.85714285714289 0  C 1.28571428571422 0  0 1.30263157894728  0 2.8947368421052  L 0 19.1052631578948  C 0 20.6973684210527  1.28571428571422 22  2.85714285714289 22  L 21.1428571428571 22  C 22.7142857142858 22  24 20.6973684210527  24 19.1052631578948  L 24 2.8947368421052  C 24 2.43881578947367  23.8928571428571 2.01184210526321  23.7071428571428 1.62828947368416  L 14.1571428571428 11.3039473684209  Z " stroke-width="4" stroke="#ffffff" fill="none" transform="matrix(1 0 0 1 486 18 )" mask="url(#clip1)" />
  </g>
</svg>