<?xml version="1.0" encoding="utf-8"?>
<svg version="1.1" xmlns:xlink="http://www.w3.org/1999/xlink" width="9px" height="9px" xmlns="http://www.w3.org/2000/svg">
  <g transform="matrix(1 0 0 1 -507 -12 )">
    <path d="M 8.92913385826773 1.06299212598424  C 8.92913385826773 0.814960629921188  8.7874015748032 0.566929133858366  8.61023622047242 0.389763779527584  C 8.43307086614163 0.212598425196802  8.14960629921256 0.0708661417322674  7.8661417322835 0.0708661417322674  L 0.99212598425197 0.0708661417322674  C 0.481889763779463 0.0637795275590634  0.0637795275590634 0.474803149606259  0.0637795275590634 0.985039370078766  C 0.0566929133858594 1.49527559055127  0.467716535433055 1.91338582677167  0.977952755905562 1.91338582677167  L 5.74724409448822 1.94881889763769  L 1.66535433070862 6.03070866141729  C 2.23228346456699 6.30708661417316  2.69291338582684 6.76771653543301  2.96929133858271 7.33464566929138  L 7.05118110236231 3.25275590551178  L 7.08661417322833 8.02204724409444  C 7.09370078740153 8.53228346456694  7.50472440944873 8.94330708661414  8.01496062992123 8.93622047244094  C 8.52519685039374 8.92913385826773  8.93622047244094 8.51811023622054  8.92913385826773 8.00787401574803  L 8.92913385826773 1.06299212598424  Z " fill-rule="nonzero" fill="#ffffff" stroke="none" transform="matrix(1 0 0 1 507 12 )" />
  </g>
</svg>