<?xml version="1.0" encoding="utf-8"?>
<svg version="1.1" xmlns:xlink="http://www.w3.org/1999/xlink" width="28px" height="26px" xmlns="http://www.w3.org/2000/svg">
  <g transform="matrix(1 0 0 1 -550 -16 )">
    <path d="M 16.8062360801782 1.38750000000005  C 17.3051224944321 1.38124999999991  16.5443207126949 0.849999999999909  16.1576837416482 0.599999999999909  C 15.5714922048998 0.231250000000045  14.7046770601336 0  13.7942093541203 0  C 12.9024498886414 0  11.9046770601336 0.15625  10.8819599109131 0.575000000000045  C 7.98218262806233 1.76250000000005  6.26726057906455 3.41249999999991  5.82449888641429 3.84999999999991  C 5.38797327394207 4.28749999999991  4.77683741648104 4.97499999999991  4.39643652561244 5.51250000000005  C 4.01603563474384 6.05625000000009  4.51492204899773 6.82500000000005  4.01603563474384 7.32500000000005  C 3.51714922048996 7.82500000000005  2.47572383073498 7.32500000000005  2.47572383073498 7.32500000000005  C 2.38841870824058 7.32500000000005  2.29487750556791 7.35625000000005  2.23251670378625 7.42499999999995  L 0.106013363028978 9.54375000000005  C -0.0311804008908894 9.67499999999995  -0.0311804008908894 9.90000000000009  0.106013363028978 10.03125  L 4.06592427616931 13.9749999999999  C 4.13452115812913 14.04375  4.22182628062365 14.075  4.30913140311804 14.075  C 4.39643652561244 14.075  4.48997772828511 14.04375  4.55233853006678 13.9749999999999  L 6.62271714922053 11.8  C 6.75991091314029 11.66875  6.75991091314029 11.4437499999999  6.62271714922053 11.3125  C 6.62271714922053 11.3125  6.29220489977729 10.9875  5.86815144766149 10.5625  C 5.44409799554569 10.1375  5.91804008908684 9.35625000000005  6.19866369710462 9.09999999999991  C 6.47928730512251 8.84375  6.92204899777278 8.67499999999995  7.51447661469933 8.67499999999995  C 7.7826280623608 8.67499999999995  7.97594654788418 8.71875  8.22538975501118 8.78749999999991  C 8.98619153674838 9  9.83429844097998 9.78125  11.3995545657016 11.3375000000001  L 11.1563474387527 11.7437500000001  C 11.0129175946548 11.98125  11.1002227171492 12.2625  11.2374164810691 12.39375  C 11.2374164810691 12.39375  10.9256124721603 12.0875000000001  12.0543429844098 13.2125000000001  L 15.1723830734967 10.2625  C 13.9812917594655 9.08124999999995  14.2681514476615 9.38124999999991  14.2681514476615 9.38124999999991  C 14.1808463251671 9.29375000000005  14.0311804008909 9.23749999999995  13.8752783964366 9.23749999999995  C 13.787973273942 9.23749999999995  13.6944320712695 9.25624999999991  13.6133630289532 9.29999999999995  L 13.2641425389755 9.48749999999995  C 11.5180400890869 7.75  11.0628062360802 6.97499999999991  11.125167037862 5.63124999999991  C 11.1937639198218 4.23125000000005  11.8922048997773 3.3125  13.027171492205 2.33750000000009  C 14.5674832962138 1.01874999999995  16.8062360801782 1.38750000000005  16.8062360801782 1.38750000000005  Z M 27.8378619153675 22.48125  C 27.9750556792873 22.3499999999999  27.9750556792873 22.125  27.8440979955457 21.9937500000001  C 27.8440979955457 21.9937500000001  23.5474387527839 18.41875  19.7247216035635 14.7625  L 16.7501113585746 17.925  C 20.3982182628063 21.7125000000001  23.9153674832962 25.9000000000001  23.9153674832962 25.9000000000001  C 23.9839643652562 25.96875  24.0712694877506 26  24.158574610245 26  C 24.2458797327395 26  24.339420935412 25.96875  24.4017817371938 25.9000000000001  L 27.8378619153675 22.48125  Z " fill-rule="nonzero" fill="#ffffff" stroke="none" transform="matrix(1 0 0 1 550 16 )" />
  </g>
</svg>