<?xml version="1.0" encoding="utf-8"?>
<svg version="1.1" xmlns:xlink="http://www.w3.org/1999/xlink" width="26px" height="26px" xmlns="http://www.w3.org/2000/svg">
  <g transform="matrix(1 0 0 1 -554 -16 )">
    <path d="M 25.9438848920863 7.38750000000005  C 25.9812949640287 6.65000000000009  25.7194244604317 5.66249999999991  24.8901678657074 4.83124999999995  L 21.6230215827338 8.11875000000009  L 18.4369304556355 7.53749999999991  L 17.8633093525179 4.34375  L 21.1304556354916 1.05625000000009  C 20.4383693045563 0.362499999999955  19.4594724220624 0.0187499999999545  18.6988009592326 0.0187499999999545  C 18.6551558752998 0.0187499999999545  18.6115107913669 0.0187499999999545  18.5741007194245 0.0250000000000909  C 17.7947242206235 0.0625  16.1299760191846 0.506249999999909  14.8393285371702 1.88124999999991  C 13.5923261390888 3.20000000000005  12.2767386091127 5.66875000000005  13.442685851319 8.40000000000009  C 13.5798561151079 8.73125000000005  13.7357314148682 9.16249999999991  13.2743405275779 9.63124999999991  C 13.1808153477218 9.71875  12.6570743405276 10.21875  11.8714628297362 10.9625000000001  C 11.6470023980816 11.175  11.4100719424461 11.4000000000001  11.1482014388489 11.6500000000001  C 10.6494004796164 12.125  10.0820143884893 12.6624999999999  9.47721822541962 13.2249999999999  C 9.24028776978412 13.45  8.99712230215823 13.675  8.75395683453235 13.9124999999999  C 5.20000000000005 17.2750000000001  0.841726618705025 21.3812499999999  0.841726618705025 21.3812499999999  C -0.280575539568304 22.3499999999999  -0.199520383693084 24.1375  0.835491606714641 25.1812500000001  C 1.36546762589933 25.70625  2.08249400479622 25.98125  2.78705035971223 25.98125  C 3.47290167865708 25.98125  4.15251798561155 25.71875  4.62637889688244 25.1624999999999  C 4.62637889688244 25.1624999999999  8.71031175059954 20.8  12.0647482014389 17.23125  C 12.2954436450839 16.98125  12.526139088729 16.7437500000001  12.7505995203837 16.5  C 13.3304556354916 15.8812499999999  13.8729016786571 15.3062500000001  14.3592326139088 14.79375  C 14.6023980815348 14.53125  14.8330935251798 14.2874999999999  15.0450839328537 14.0687499999999  C 15.7621103117506 13.3062500000001  16.2484412470023 12.79375  16.3544364508393 12.6937499999999  C 16.6038369304556 12.45  16.8345323741007 12.375  17.0465227817746 12.375  C 17.252278177458 12.375  17.4330935251799 12.45  17.5827338129496 12.5250000000001  C 18.2 12.84375  18.8920863309353 12.98125  19.6028776978417 12.98125  C 21.2676258992806 12.98125  23.032134292566 12.20625  24.0983213429256 11.1375  C 25.6196642685851 9.61249999999995  25.894004796163 8.14374999999995  25.9438848920863 7.38750000000005  Z M 3.57889688249395 22.39375  C 3.91558752997605 22.7375  3.91558752997605 23.29375  3.57889688249395 23.6312499999999  C 3.23597122302158 23.96875  2.68105515587536 23.96875  2.34436450839326 23.6312499999999  C 2.00767386091127 23.2874999999999  2.00767386091127 22.73125  2.34436450839326 22.39375  C 2.68729016786574 22.0562500000001  3.24220623501196 22.0562500000001  3.57889688249395 22.39375  Z " fill-rule="nonzero" fill="#ffffff" stroke="none" transform="matrix(1 0 0 1 554 16 )" />
  </g>
</svg>