<?xml version="1.0" encoding="utf-8"?>
<svg version="1.1" xmlns:xlink="http://www.w3.org/1999/xlink" width="23px" height="26px" xmlns="http://www.w3.org/2000/svg">
  <g transform="matrix(1 0 0 1 -212 -16 )">
    <path d="M 22.8921875000001 9.06759002770082  L 11.6796875 0.0792243767311902  C 11.5718750000001 -0.00720221606638916  11.4281249999999 -0.00720221606638916  11.3203125 0.0792243767311902  L 0.107812499999909 9.06759002770082  C 0.0431249999999181 9.12520775623261  0 9.20443213296403  0 9.29085872576184  L 0 25.8559556786704  C 0 25.9351800554016  0.0646874999999909 26  0.143749999999955 26  L 7.90625 26  C 7.98531249999996 26  8.04999999999995 25.9351800554016  8 25.8559556786704  L 8 15.7728531855955  C 8.04999999999995 15.6936288088643  8.11468749999995 15.6288088642659  8.19374999999991 15.6288088642659  L 14.8062500000001 15.6288088642659  C 14.8853125000001 15.6288088642659  14.95 15.6936288088643  15 15.7728531855955  L 15 25.8559556786704  C 14.95 25.9351800554016  15.0146875 26  15.09375 26  L 22.85625 26  C 22.9353125 26  23 25.9351800554016  23 25.8559556786704  L 23 9.29085872576184  C 23 9.20443213296403  22.9568750000001 9.11800554016622  22.8921875000001 9.06759002770082  Z " fill-rule="nonzero" fill="#ffffff" stroke="none" transform="matrix(1 0 0 1 212 16 )" />
  </g>
</svg>