<?xml version="1.0" encoding="utf-8"?>
<svg version="1.1" xmlns:xlink="http://www.w3.org/1999/xlink" width="30px" height="13px" xmlns="http://www.w3.org/2000/svg">
  <g transform="matrix(1 0 0 1 -208 -12 )">
    <path d="M 29.9354066985645 11.8857142857144  C 29.9138755980862 11.5999999999999  29.7775119617224 11.3357142857142  29.5478468899521 11.1571428571428  L 15.9832535885168 0.342857142857156  C 15.7105263157894 0.121428571428623  15.3588516746411 0  15 0  C 14.6411483253589 0  14.2894736842106 0.121428571428623  14.0167464114832 0.342857142857156  L 8.11004784688998 5.12142857142862  L 8.11004784688998 2.10714285714289  C 8.11004784688998 2.02857142857147  8.0454545454545 1.96428571428578  7.96650717703346 1.96428571428578  L 3.66028708133967 1.96428571428578  C 3.58133971291863 1.96428571428578  3.51674641148315 2.02857142857147  3.51674641148315 2.10714285714289  L 3.51674641148315 8.69285714285706  L 0.452153110047902 11.2  C 0.229665071770341 11.3785714285714  0.0861244019138212 11.6428571428571  0.0717703349282601 11.9285714285713  C 0.0574162679424717 12.2142857142858  0.165071770334862 12.4928571428572  0.366028708134081 12.6928571428571  C 0.552631578947285 12.8785714285714  0.803827751196195 12.9857142857143  1.07655502392345 12.9857142857143  C 1.30622009569379 12.9857142857143  1.52870813397135 12.9071428571428  1.70813397129177 12.7642857142857  L 14.9066985645934 2.19285714285706  C 14.9425837320575 2.1642857142856  14.9712918660287 2.1642857142856  15 2.1642857142856  C 15.0287081339713 2.1642857142856  15.0574162679427 2.17142857142858  15.0933014354066 2.19285714285706  L 28.2918660287082 12.7214285714285  C 28.4712918660287 12.8642857142856  28.6937799043062 12.9428571428571  28.9234449760766 12.9428571428571  C 29.188995215311 12.9428571428571  29.4401913875597 12.8428571428572  29.6339712918659 12.6500000000001  C 29.8421052631579 12.45  29.9497607655503 12.1714285714286  29.9354066985645 11.8857142857144  Z " fill-rule="nonzero" fill="#ffffff" stroke="none" transform="matrix(1 0 0 1 208 12 )" />
  </g>
</svg>