<?xml version="1.0" encoding="utf-8"?>
<svg version="1.1" xmlns:xlink="http://www.w3.org/1999/xlink" width="32px" height="26px" xmlns="http://www.w3.org/2000/svg">
  <g transform="matrix(1 0 0 1 -620 -16 )">
    <path d="M 32 21.4130681818183  C 32 20.8443181818182  31.55 20.3789772727273  31 20  L 1 20  C 0.45 20.3789772727273  0 20.8443181818182  0 21.4130681818183  C 0 21.9818181818181  0.45 22.447159090909  1 22  L 31 22  C 31.55 22.447159090909  32 21.9818181818181  32 21.4130681818183  Z M 32 24.9585227272728  C 32 24.3897727272727  31.55 23.9244318181819  31 24  L 1 24  C 0.45 23.9244318181819  0 24.3897727272727  0 24.9585227272728  C 0 25.5272727272727  0.45 25.9926136363635  1 26  L 31 26  C 31.55 25.9926136363635  32 25.5272727272727  32 24.9585227272728  Z M 32 2.6000000000001  C 32 1.17443181818186  30.8714285714285 0.00738636363648008  29.492857142857 0  L 2.507142857143 0  C 1.1285714285715 0.00738636363648008  0 1.17443181818186  0 2.6000000000001  L 0 15.7329545454545  C 0 17.1585227272728  1.1285714285715 18.3255681818181  2.507142857143 18  L 29.492857142857 18  C 30.8714285714285 18.3255681818181  32 17.1585227272728  32 15.7329545454545  L 32 2.6000000000001  Z M 6.857142857143 14.927840909091  C 6.857142857143 15.4965909090909  6.407142857143 15.9619318181817  5.857142857143 15.9619318181817  L 3.28571428571449 15.9619318181817  C 2.73571428571449 15.9619318181817  2.28571428571449 15.4965909090909  2.28571428571449 14.927840909091  C 2.28571428571449 14.3590909090909  2.73571428571449 13.8937500000001  3.28571428571449 13.8937500000001  L 5.857142857143 13.8937500000001  C 6.407142857143 13.8937500000001  6.857142857143 14.3590909090909  6.857142857143 14.927840909091  Z M 6.857142857143 3.40511363636362  C 6.857142857143 3.97386363636372  6.407142857143 4.43920454545457  5.857142857143 4.43920454545457  L 3.28571428571449 4.43920454545457  C 2.73571428571449 4.43920454545457  2.28571428571449 3.97386363636372  2.28571428571449 3.40511363636362  C 2.28571428571449 2.83636363636352  2.73571428571449 2.37102272727266  3.28571428571449 2.37102272727266  L 5.857142857143 2.37102272727266  C 6.407142857143 2.37102272727266  6.857142857143 2.83636363636352  6.857142857143 3.40511363636362  Z M 21.7142857142855 9.16647727272719  C 21.7142857142855 12.4238636363637  19.15 15.0755681818181  16 15.0755681818181  C 12.85 15.0755681818181  10.2857142857145 12.4238636363637  10.2857142857145 9.16647727272719  C 10.2857142857145 5.90909090909095  12.85 3.25738636363648  16 3.25738636363648  C 19.15 3.25738636363648  21.7142857142855 5.90909090909095  21.7142857142855 9.16647727272719  Z M 29.7142857142855 14.927840909091  C 29.7142857142855 15.4965909090909  29.2642857142855 15.9619318181817  28.7142857142855 15.9619318181817  L 26.142857142857 15.9619318181817  C 25.592857142857 15.9619318181817  25.142857142857 15.4965909090909  25.142857142857 14.927840909091  C 25.142857142857 14.3590909090909  25.592857142857 13.8937500000001  26.142857142857 13.8937500000001  L 28.7142857142855 13.8937500000001  C 29.2642857142855 13.8937500000001  29.7142857142855 14.3590909090909  29.7142857142855 14.927840909091  Z M 29.7142857142855 3.40511363636362  C 29.7142857142855 3.97386363636372  29.2642857142855 4.43920454545457  28.7142857142855 4.43920454545457  L 26.142857142857 4.43920454545457  C 25.592857142857 4.43920454545457  25.142857142857 3.97386363636372  25.142857142857 3.40511363636362  C 25.142857142857 2.83636363636352  25.592857142857 2.37102272727266  26.142857142857 2.37102272727266  L 28.7142857142855 2.37102272727266  C 29.2642857142855 2.37102272727266  29.7142857142855 2.83636363636352  29.7142857142855 3.40511363636362  Z " fill-rule="nonzero" fill="#ffffff" stroke="none" transform="matrix(1 0 0 1 620 16 )" />
  </g>
</svg>