<?xml version="1.0" encoding="utf-8"?>
<svg version="1.1" xmlns:xlink="http://www.w3.org/1999/xlink" width="27px" height="20px" xmlns="http://www.w3.org/2000/svg">
  <g transform="matrix(1 0 0 1 -419 -20 )">
    <path d="M 24.2122500000001 19.6041666666666  C 21.8024999999999 18.7430555555557  19.9665 17.0833333333334  19.9665 17.0833333333334  C 18.198 17.7222222222223  15.47775 18.1180555555557  13.47975 18.1180555555557  C 11.4817499999999 18.1180555555557  8.76149999999991 17.7222222222223  6.99299999999998 17.0833333333334  C 6.99299999999998 17.0833333333334  5.23125 18.7430555555557  2.78774999999987 19.5972222222223  C 2.63250000000016 19.6527777777779  2.68650000000011 19.8888888888891  2.84849999999997 19.8680555555556  C 4.37400000000012 19.6875  5.56199999999985 19.4166666666667  6.99299999999998 19.0347222222222  C 8.5454999999999 19.6597222222222  11.49525 20  13.47975 20  C 15.4642500000001 20  18.4815000000001 19.736111111111  19.9665 19.0347222222222  C 21.4177499999999 19.423611111111  22.5854999999998 19.7013888888889  24.1515 19.8750000000002  C 24.3134999999999 19.8958333333334  24.3674999999998 19.6597222222222  24.2122500000001 19.6041666666666  Z M 27 7.18055555555566  C 27 6.67361111111094  26.70975 6.24305555555566  26.2912500000001 6.0416666666666  L 13.7227500000002 0.104166666666598  C 13.5809999999999 0.0347222222221304  13.4122499999999 0.0347222222221304  13.2705000000001 0.104166666666598  L 0.708749999999918 6.0416666666666  C 0.290249999999992 6.24305555555566  0 6.67361111111094  0 7.18055555555566  C 0 7.34722222222238  0.0337500000001228 7.5  0.0877500000000737 7.64583333333328  L 3.78000000000004 17.0833333333334  C 5.63625000000004 17.0833333333334  7.60725000000009 15.5555555555555  7.60725000000009 15.5555555555555  C 8.82225000000001 16.1805555555555  11.1915000000002 16.7430555555556  12.9600000000001 16.8472222222222  C 13.1490000000001 16.8611111111111  13.33125 16.8611111111111  13.5 16.8611111111111  C 13.66875 16.8611111111111  13.8509999999999 16.8541666666668  14.0399999999999 16.8472222222222  C 15.8084999999998 16.7430555555556  18.17775 16.1875000000001  19.3927499999999 15.5555555555555  C 19.3927499999999 15.5555555555555  21.36375 17.0833333333334  23.22 17.0833333333334  L 26.9122499999999 7.64583333333328  C 26.9662499999999 7.5  27 7.34722222222238  27 7.18055555555566  Z M 11.3400000000001 6.25  C 11.3400000000001 7.0972222222223  10.9755000000001 7.77777777777787  10.53 7.77777777777787  C 10.0844999999999 7.77777777777787  9.71999999999996 7.0972222222223  9.71999999999996 6.25  C 9.71999999999996 5.4027777777777  10.0844999999999 4.72222222222213  10.53 4.72222222222213  C 10.9755000000001 4.72222222222213  11.3400000000001 5.4027777777777  11.3400000000001 6.25  Z M 17.28 6.25  C 17.28 7.0972222222223  16.9155000000001 7.77777777777787  16.47 7.77777777777787  C 16.0244999999999 7.77777777777787  15.6599999999999 7.0972222222223  15.6599999999999 6.25  C 15.6599999999999 5.4027777777777  16.0244999999999 4.72222222222213  16.47 4.72222222222213  C 16.9155000000001 4.72222222222213  17.28 5.4027777777777  17.28 6.25  Z " fill-rule="nonzero" fill="#ffffff" stroke="none" transform="matrix(1 0 0 1 419 20 )" />
  </g>
</svg>