<?xml version="1.0" encoding="utf-8"?>
<svg version="1.1" xmlns:xlink="http://www.w3.org/1999/xlink" width="21px" height="12px" xmlns="http://www.w3.org/2000/svg">
  <g transform="matrix(1 0 0 1 -422 -12 )">
    <path d="M 20.945806451613 11.6618784530386  L 19.7061290322582 5.23756906077345  L 19.7061290322582 5.23093922651942  C 19.3267741935485 3.46740331491709  18.5206451612905 2.12154696132606  17.0032258064515 2.12154696132606  L 14.6593548387096 2.12154696132606  L 14.523870967742 1.59116022099449  C 14.2800000000001 0.656353591160321  13.4129032258065 0  12.4238709677418 0  L 8.56258064516139 0  C 7.57354838709674 0  6.70645161290315 0.656353591160321  6.46258064516122 1.59779005524853  L 6.32709677419361 2.12154696132606  L 3.99677419354849 2.12154696132606  C 2.44548387096759 2.12154696132606  1.6190322580645 3.49392265193364  1.30064516129018 5.23756906077345  L 0.0677419354838094 11.6552486187845  C 0.0270967741935237 11.8674033149172  0.243870967741921 12.0331491712708  0.447096774193557 11.9469613259669  L 2.16096774193539 11.1779005524861  C 2.24225806451596 11.1447513812155  2.29645161290321 11.0718232044199  2.31677419354836 10.9856353591159  L 3.41419354838711 5.31049723756909  C 3.58354838709684 4.60110497237565  3.90870967741933 4.24972375690616  4.50483870967747 4.24972375690616  L 16.5019354838709 4.24972375690616  C 17.1048387096774 4.24972375690616  17.3893548387096 4.58121546961334  17.5925806451613 5.31049723756909  L 18.69 10.9856353591159  C 18.7035483870968 11.0718232044199  18.7645161290324 11.1447513812155  18.845806451613 11.1779005524861  L 20.5664516129032 11.9535911602209  C 20.7696774193548 12.0464088397791  20.9864516129032 11.8740331491712  20.945806451613 11.6618784530386  Z " fill-rule="nonzero" fill="#ffffff" stroke="none" transform="matrix(1 0 0 1 422 12 )" />
  </g>
</svg>