<?xml version="1.0" encoding="utf-8"?>
<svg version="1.1" xmlns:xlink="http://www.w3.org/1999/xlink" width="34px" height="26px" xmlns="http://www.w3.org/2000/svg">
  <g transform="matrix(1 0 0 1 -692 -16 )">
    <path d="M 34 6.33116883116887  L 34 2.53246753246749  C 34 1.13961038961047  32.9071428571428 0  31.5714285714286 0  L 2.42857142857139 0  C 1.09285714285722 0  0 1.13961038961047  0 2.53246753246749  L 0 6.33116883116887  L 34 6.33116883116887  Z M 0 10.1298701298702  L 0 22.792207792208  C 0 24.185064935065  1.09285714285722 25.3246753246755  2.42857142857139 25  L 31.5714285714286 25  C 32.9071428571428 25.3246753246755  34 24.185064935065  34 22.792207792208  L 34 10.1298701298702  L 0 10.1298701298702  Z M 9.71428571428583 20.1014610389612  C 9.71428571428583 19.4920860389612  10.1924107142858 18.9935064935066  10.7767857142858 19  L 23.2232142857142 19  C 23.8075892857142 18.9935064935066  24.2857142857142 19.4920860389612  24.2857142857142 20.1014610389612  C 24.2857142857142 20.7108360389612  23.8075892857142 21.2094155844157  23.2232142857142 21  L 10.7767857142858 21  C 10.1924107142858 21.2094155844157  9.71428571428583 20.7108360389612  9.71428571428583 20.1014610389612  Z M 4.25 20.1014610389612  C 4.25 19.4920860389612  4.728125 18.9935064935066  5.3125 18.9935064935066  L 6.22321428571417 18.9935064935066  C 6.80758928571418 18.9935064935066  7.28571428571417 19.4920860389612  7.28571428571417 20.1014610389612  C 7.28571428571417 20.7108360389612  6.80758928571418 21.2094155844157  6.22321428571417 21.2094155844157  L 5.3125 21.2094155844157  C 4.728125 21.2094155844157  4.25 20.7108360389612  4.25 20.1014610389612  Z " fill-rule="nonzero" fill="#ffffff" stroke="none" transform="matrix(1 0 0 1 692 16 )" />
  </g>
</svg>