<?xml version="1.0" encoding="utf-8"?>
<svg version="1.1" xmlns:xlink="http://www.w3.org/1999/xlink" width="15px" height="14px" xmlns="http://www.w3.org/2000/svg">
  <g transform="matrix(1 0 0 1 -932 -123 )">
    <path d="M 14.6115107913669 2.81678657074338  C 14.5071942446043 2.68920863309357  14.3021582733813 2.67577937649876  14.1762589928057 2.78992805755397  L 12.5611510791367 4.30407673860908  C 12.5287769784172 4.33429256594727  12.4784172661871 4.34772182254198  12.4352517985611 4.34100719424462  L 10.7661870503597 4.05899280575538  C 10.7086330935252 4.04892086330935  10.6618705035971 4.00527577937655  10.6510791366907 3.95155875299762  L 10.3525179856115 2.39376498800962  C 10.3453237410072 2.35011990407672  10.3597122302158 2.30647482014392  10.3920863309353 2.27625899280573  L 12.0035971223022 0.765467625899297  C 12.1294964028777 0.647961630695408  12.1115107913669 0.453237410071961  11.9676258992806 0.359232613908913  C 11.6043165467626 0.117505995203889  11.1726618705036 0  10.8237410071943 0  C 10.7985611510792 0  10.773381294964 0  10.7517985611511 0.00335731414867647  C 10.3021582733813 0.0268585131894118  9.33812949640287 0.261870503597083  8.5935251798561 1.00047961630697  C 7.87050359712225 1.71223021582734  7.11510791366902 3.03501199040767  7.78417266187046 4.50887290167866  C 7.86330935251795 4.68681055155873  7.95323741007189 4.9218225419664  7.6870503597122 5.17026378896888  C 7.41366906474821 5.41870503597126  0.503597122302153 11.4920863309353  0.503597122302153 11.4920863309353  C -0.143884892086362 12.0124700239809  -0.0971223021582546 12.9760191846523  0.5 13.536690647482  C 0.805755395683491 13.8187050359713  1.2194244604317 13.9664268585132  1.6258992805756 13.9664268585132  C 2.02517985611507 13.9664268585132  2.41366906474821 13.8254196642686  2.69064748201436 13.526618705036  C 2.69064748201436 13.526618705036  9.14388489208636 7.11079136690654  9.46043165467631 6.81870503597126  C 9.60431654676256 6.68776978417266  9.73741007194246 6.64748201438855  9.85971223021579 6.64748201438855  C 9.97841726618708 6.64748201438855  10.0863309352518 6.68776978417266  10.1690647482014 6.72805755395689  C 10.5251798561151 6.8992805755396  10.9244604316547 6.97649880095926  11.3345323741007 6.97649880095926  C 12.2985611510792 6.97649880095926  13.3129496402878 6.56019184652285  13.931654676259 5.98273381294965  C 14.8093525179856 5.16354916067153  14.9712230215828 4.37122302158271  14.9964028776978 3.96498800959233  C 15.0179856115108 3.63261390887293  14.9172661870504 3.20623501199038  14.6115107913669 2.81678657074338  Z M 1.99640287769785 12.1333333333333  C 2.19064748201436 12.3213429256595  2.19064748201436 12.6201438848922  1.99640287769785 12.8014388489209  C 1.79856115107918 12.9827338129496  1.47841726618708 12.9827338129496  1.2805755395683 12.8014388489209  C 1.08633093525179 12.6167865707435  1.08633093525179 12.3179856115109  1.2805755395683 12.1333333333333  C 1.47841726618708 11.9520383693046  1.79856115107918 11.9520383693046  1.99640287769785 12.1333333333333  Z " fill-rule="nonzero" fill="#ffffff" stroke="none" transform="matrix(1 0 0 1 932 123 )" />
  </g>
</svg>