<?xml version="1.0" encoding="utf-8"?>
<svg version="1.1" xmlns:xlink="http://www.w3.org/1999/xlink" width="26px" height="28px" xmlns="http://www.w3.org/2000/svg">
  <g transform="matrix(1 0 0 1 -278 -14 )">
    <path d="M 5.78102213541667 26.1136610243056  C 3.02317708333333 26.1208767361111  2.01009114583333 26.2796223958333  1.09348958333333 25.4498155381944  C 0.94072265625 25.3127170138889  0.635188802083333 25.4137369791667  0.643229166666667 25.6085611979167  C 0.7236328125 27.1599392361111  0.755794270833333 27.7011176215278  1.08544921875 27.7011176215278  L 5.51569010416667 27.7011176215278  C 5.86946614583333 27.7011176215278  5.78102213541667 26.8713107638889  5.78102213541667 26.1136610243056  Z M 19.94814453125 26.1136610243056  C 22.7059895833333 26.1208767361111  23.7190755208335 26.2796223958333  24.6356770833333 25.4498155381944  C 24.7884440104167 25.3127170138889  25.0939778645833 25.4137369791667  25.0859375 25.6085611979167  C 25.0055338541667 27.1599392361111  24.9733723958333 27.7011176215278  24.6437174479167 27.7011176215278  L 20.2134765625 27.7011176215278  C 19.8597005208335 27.7011176215278  19.94814453125 26.8713107638889  19.94814453125 26.1136610243056  Z M 25.7291666666667 2.30902777777778  C 25.7291666666667 1.0390625  24.5713541666667 0  23.15625 0  L 2.57291666666667 0  C 1.1578125 0  0 1.0390625  0 2.30902777777778  L 0 22.2243923611111  C 0 23.8118489583333  1.447265625 25.1106770833333  3.21614583333333 25  L 22.5130208333335 25  C 24.2819010416667 25.1106770833333  25.7291666666667 23.8118489583333  25.7291666666667 22.2243923611111  L 25.7291666666667 2.30902777777778  Z M 7.07552083333333 20.9183485243056  C 6.9951171875 21.7625868055556  6.23932291666667 22.4408637152777  5.306640625 22.5058051215278  C 4.11666666666667 22.5923936631944  3.1357421875 21.7048611111111  3.22418619791667 20.6369357638889  C 3.29654947916667 19.7999131944444  4.05234375 19.1144205729167  4.99306640625 19.0494791666667  C 6.18304036458333 18.962890625  7.16396484375 19.8504231770833  7.07552083333333 20.9183485243056  Z M 12 16.5961371527778  C 11.7389322916667 16.7548828125  11.5942057291667 16.884765625  11.4173177083333 16.884765625  L 3.55384114583333 16.884765625  C 2.83824869791667 16.884765625  2.25130208333333 16.3580186631944  2.25130208333333 15.7158203125  L 2.25130208333333 7.37445746527778  C 2.25130208333333 6.73225911458333  2.83824869791667 6.20551215277778  3.55384114583333 6.20551215277778  L 11.4173177083333 6.20551215277778  C 11.5942057291667 6.20551215277778  11.7389322916667 6.33539496527778  12 6.494140625  L 12 16.5961371527778  Z M 22.50498046875 20.9183485243056  C 22.4326171875 21.7625868055556  21.6768229166667 22.4408637152777  20.7361002604167 22.5058051215278  C 19.5461263020833 22.5923936631944  18.5652018229167 21.7048611111111  18.6536458333335 20.6369357638889  C 18.7260091145833 19.7999131944444  19.4818033854167 19.1144205729167  20.4225260416667 19.0494791666667  C 21.6125000000002 18.962890625  22.5934244791667 19.8504231770833  22.50498046875 20.9183485243056  Z M 23.4778645833335 7.36002604166667  L 23.4778645833335 15.7302517361111  C 23.4778645833335 16.365234375  22.8989583333333 16.884765625  22.19140625 16.884765625  L 14.3118489583335 16.884765625  C 14.1349609375002 16.884765625  13.990234375 16.7548828125  14 16.5961371527778  L 14 6.494140625  C 13.990234375 6.33539496527778  14.1349609375002 6.20551215277778  14.3118489583335 6.20551215277778  L 22.19140625 6.20551215277778  C 22.8989583333333 6.20551215277778  23.4778645833335 6.72504340277778  23.4778645833335 7.36002604166667  Z M 23.4778645833335 3.03059895833333  C 23.4778645833335 3.58620876736111  22.9793619791667 4.04079861111111  22.2718098958335 4  L 3.45735677083333 4  C 2.7498046875 4.04079861111111  2.25130208333333 3.58620876736111  2.25130208333333 3.03059895833333  C 2.25130208333333 2.47498914930556  2.7498046875 2.02039930555556  3.45735677083333 2  L 22.2718098958335 2  C 22.9793619791667 2.02039930555556  23.4778645833335 2.47498914930556  23.4778645833335 3.03059895833333  Z " fill-rule="nonzero" fill="#ffffff" stroke="none" transform="matrix(1 0 0 1 278 14 )" />
  </g>
</svg>