<?xml version="1.0" encoding="utf-8"?>
<svg version="1.1" xmlns:xlink="http://www.w3.org/1999/xlink" width="30px" height="30px" xmlns="http://www.w3.org/2000/svg">
  <g transform="matrix(1 0 0 1 -766 -12 )">
    <path d="M 29.9352517985612 14.9640287769785  C 29.9352517985612 6.71223021582728  23.2158273381297 0  14.9640287769785 0  L 14.9136690647483 0  C 10.9280575539569 0.0143884892086135  7.18705035971243 1.57553956834522  4.3669064748201 4.39568345323733  C 1.55395683453253 7.22302158273374  0 10.9712230215828  0 14.9640287769785  C 0 18.9568345323742  1.55395683453253 22.7050359712232  4.3741007194244 25.5323741007196  C 7.18705035971243 28.3525179856117  10.9352517985612 29.9136690647483  14.9208633093526 29.9280575539569  L 14.9712230215828 29.9280575539569  C 23.223021582734 29.9280575539569  29.9352517985612 23.2158273381297  29.9352517985612 14.9640287769785  Z M 25.2158273381297 6.96402877697847  C 26.798561151079 8.99280575539569  27.7338129496402 11.3956834532376  27.9280575539569 13.9568345323742  L 22.3453237410072 13.9568345323742  C 22.2805755395684 12.0359712230215  22.0431654676258 10.2014388489208  21.6402877697842 8.47482014388493  C 22.8705035971225 8.0791366906476  24.0647482014388 7.57553956834545  25.2158273381297 6.96402877697847  Z M 13.9568345323742 9.49640287769785  L 13.9568345323742 13.9568345323742  L 9.51079136690669 13.9568345323742  C 9.56834532374114 12.1942446043165  9.78417266187034 10.5251798561151  10.1438848920861 8.98561151079139  C 11.3956834532373 9.2661870503598  12.6690647482014 9.43884892086339  13.9568345323742 9.49640287769785  Z M 9.51079136690669 15.9712230215828  L 13.9568345323742 15.9712230215828  L 13.9568345323742 20.4244604316548  C 12.6762589928057 20.4820143884892  11.3956834532373 20.6546762589928  10.1438848920861 20.9352517985612  C 9.78417266187034 19.3956834532376  9.56834532374114 17.7266187050361  9.51079136690669 15.9712230215828  Z M 15.9712230215828 20.4244604316548  L 15.9712230215828 15.9712230215828  L 20.3812949640287 15.9712230215828  C 20.3237410071943 17.7266187050361  20.1079136690646 19.3956834532376  19.7482014388488 20.9280575539569  C 18.5107913669067 20.6474820143885  17.2446043165469 20.4820143884892  15.9712230215828 20.4244604316548  Z M 20.3812949640287 13.9568345323742  L 15.9712230215828 13.9568345323742  L 15.9712230215828 9.49640287769785  C 17.2517985611512 9.43884892086339  18.517985611511 9.2661870503598  19.7482014388488 8.99280575539569  C 20.1079136690646 10.5323741007194  20.3237410071943 12.1942446043165  20.3812949640287 13.9568345323742  Z M 19.201438848921 2.66906474820144  C 20.9280575539569 3.2661870503598  22.5035971223024 4.22302158273374  23.8417266187053 5.47482014388493  C 22.9568345323742 5.91366906474832  22.0431654676258 6.28776978417272  21.1079136690646 6.58992805755406  C 20.5971223021584 5.05035971223015  19.9496402877699 3.71942446043158  19.201438848921 2.66906474820144  Z M 15.9712230215828 2.2589928057555  C 17.1942446043167 2.92086330935263  18.388489208633 4.69784172661866  19.2086330935254 7.10791366906483  C 18.1510791366904 7.33812949640287  17.0647482014388 7.48201438848923  15.9712230215828 7.53956834532369  L 15.9712230215828 2.2589928057555  Z M 10.68345323741 7.09352517985621  C 11.517985611511 4.66187050359713  12.7266187050359 2.88489208633086  13.9568345323742 2.23021582733804  L 13.9568345323742 7.53237410071938  C 12.8489208633096 7.47482014388493  11.7553956834531 7.33093525179856  10.68345323741 7.09352517985621  Z M 6.08633093525168 5.47482014388493  C 7.41007194244594 4.23021582733804  8.97122302158277 3.28057553956842  10.6762589928057 2.69064748201436  C 9.93525179856124 3.7338129496402  9.29496402877703 5.05755395683445  8.78417266187034 6.58273381294975  C 7.86330935251817 6.28057553956842  6.95683453237416 5.90647482014401  6.08633093525168 5.47482014388493  Z M 2.00719424460431 13.9496402877699  C 2.19424460431674 11.4028776978419  3.12949640287752 9  4.71223021582728 6.97122302158277  C 5.84892086330956 7.57553956834545  7.03597122302153 8.0791366906476  8.25179856115119 8.46762589928062  C 7.84172661870525 10.1870503597122  7.60431654676268 12.0287769784172  7.54676258992822 13.9496402877699  L 2.00719424460431 13.9496402877699  Z M 4.70503597122297 22.9496402877699  C 3.12949640287752 20.9280575539569  2.19424460431674 18.5251798561151  2 15.9712230215828  L 7.53956834532391 15.9712230215828  C 7.60431654676268 17.8920863309354  7.84172661870525 19.7338129496404  8.24460431654688 21.453237410072  C 7.02877697841723 21.8489208633093  5.84172661870525 22.3525179856115  4.70503597122297 22.9496402877699  Z M 10.6762589928057 27.2446043165469  C 8.97122302158277 26.6402877697842  7.41007194244594 25.6978417266189  6.07913669064737 24.453237410072  C 6.94964028776985 24.0215827338129  7.85611510791386 23.6474820143885  8.78417266187034 23.3453237410072  C 9.29496402877703 24.8776978417268  9.93525179856124 26.1942446043167  10.6762589928057 27.2446043165469  Z M 13.9568345323742 27.6978417266189  C 12.7194244604316 27.0431654676261  11.517985611511 25.2589928057555  10.68345323741 22.8273381294964  C 11.7553956834531 22.5899280575541  12.8561151079139 22.4460431654677  13.9568345323742 22.3884892086332  L 13.9568345323742 27.6978417266189  Z M 19.2086330935254 22.8129496402878  C 18.388489208633 25.2302158273383  17.1942446043167 27.0071942446043  15.9712230215828 27.6690647482014  L 15.9712230215828 22.3812949640289  C 17.0647482014388 22.4388489208634  18.1510791366904 22.5827338129498  19.2086330935254 22.8129496402878  Z M 23.8489208633096 24.4604316546763  C 22.5107913669067 25.7050359712232  20.9280575539569 26.6618705035971  19.2086330935254 27.2589928057555  C 19.9568345323742 26.2086330935254  20.6043165467627 24.8776978417268  21.1151079136689 23.3381294964029  C 22.0503597122301 23.6402877697842  22.9712230215828 24.0215827338129  23.8489208633096 24.4604316546763  Z M 27.9280575539569 15.9712230215828  C 27.7338129496402 18.5251798561151  26.8057553956833 20.9280575539569  25.2158273381297 22.9568345323742  C 24.0647482014388 22.3453237410072  22.8705035971225 21.841726618705  21.6402877697842 21.4460431654677  C 22.0431654676258 19.7266187050361  22.2805755395684 17.8920863309354  22.3453237410072 15.9712230215828  L 27.9280575539569 15.9712230215828  Z " fill-rule="nonzero" fill="#f4f7fd" stroke="none" transform="matrix(1 0 0 1 766 12 )" />
  </g>
</svg>