<?xml version="1.0" encoding="utf-8"?>
<svg version="1.1" xmlns:xlink="http://www.w3.org/1999/xlink" width="30px" height="28px" xmlns="http://www.w3.org/2000/svg">
  <g transform="matrix(1 0 0 1 -346 -12 )">
    <path d="M 30 5.19230769230762  C 30 3.60576923076928  28.7019230769231 2.30769230769238  27.1153846153846 2.30769230769238  L 24.2307692307693 2.30769230769238  L 24.2307692307693 4.03846153846143  C 24.2307692307693 4.35576923076928  23.9711538461538 4.61538461538453  23.6538461538462 4.61538461538453  L 22.5 4.61538461538453  C 22.1826923076923 4.61538461538453  21.9230769230769 4.35576923076928  21.9230769230769 4.03846153846143  L 21.9230769230769 2.30769230769238  L 8.07692307692309 2.30769230769238  L 8.07692307692309 4.03846153846143  C 8.07692307692309 4.35576923076928  7.81730769230774 4.61538461538453  7.5 4.61538461538453  L 6.34615384615381 4.61538461538453  C 6.02884615384619 4.61538461538453  5.76923076923072 4.35576923076928  5.76923076923072 4.03846153846143  L 5.76923076923072 2.30769230769238  L 2.88461538461536 2.30769230769238  C 1.29807692307691 2.30769230769238  0 3.60576923076928  0 5.19230769230762  L 0 24.8076923076922  C 0 26.3942307692307  1.29807692307691 27.6923076923076  2.88461538461536 27.6923076923076  L 27.1153846153846 27.6923076923076  C 28.7019230769231 27.6923076923076  30 26.3942307692307  30 24.8076923076922  L 30 5.19230769230762  Z M 27.6923076923077 10.9615384615383  L 27.6923076923077 23.9423076923076  C 27.6923076923077 24.7355769230769  27.0432692307693 25.3846153846152  26.25 25  L 3.75 25  C 2.95673076923072 25.3846153846152  2.30769230769226 24.7355769230769  2.30769230769226 23.9423076923076  L 2.30769230769226 10.9615384615383  C 2.30769230769226 10.6442307692307  2.56730769230774 10.3846153846152  2.88461538461536 10.3846153846152  L 27.1153846153846 10.3846153846152  C 27.4326923076923 10.3846153846152  27.6923076923077 10.6442307692307  27.6923076923077 10.9615384615383  Z M 8.07692307692309 2.30769230769238  L 8.07692307692309 0.576923076923094  C 8.07692307692309 0.259615384615472  7.81730769230774 0  7.5 0  L 6.34615384615381 0  C 6.02884615384619 0  5.76923076923072 0.259615384615472  5.76923076923072 0.576923076923094  L 5.76923076923072 2.30769230769238  L 8.07692307692309 2.30769230769238  Z M 24.2307692307693 2.30769230769238  L 24.2307692307693 0.576923076923094  C 24.2307692307693 0.259615384615472  23.9711538461538 0  23.6538461538462 0  L 22.5 0  C 22.1826923076923 0  21.9230769230769 0.259615384615472  21.9230769230769 0.576923076923094  L 21.9230769230769 2.30769230769238  L 24.2307692307693 2.30769230769238  Z " fill-rule="nonzero" fill="#ffffff" stroke="none" transform="matrix(1 0 0 1 346 12 )" />
  </g>
</svg>