<?xml version="1.0" encoding="utf-8"?>
<svg version="1.1" xmlns:xlink="http://www.w3.org/1999/xlink" width="31px" height="23px" xmlns="http://www.w3.org/2000/svg">
  <g transform="matrix(1 0 0 1 -836 -17 )">
    <path d="M 31 13.3446241258741  C 31 10.4042832167832  29.3382211538461 8.58730332167828  27.4230769230768 6.95126748251747  C 26.3947115384616 4.62915209790213  23.7716346153845 0  19.9711538461539 0  L 11.0288461538461 0  C 7.22836538461546 0  4.70961538461546 4.47836538461535  3.57692307692319 6.95126748251747  C 1.78846153846159 8.68531468531464  0 10.3967438811189  0 13.3446241258741  L 0 19.0745192307692  C 0 19.3534746503496  0.19375 19.6022727272727  0.462019230769321 19.6625874125874  C 1.57235576923068 19.9189248251749  5.09711538461546 20.4315996503496  15.5 20.4315996503496  C 25.9028846153845 20.4315996503496  29.4276442307693 19.9189248251749  30.5379807692307 19.6625874125874  C 30.80625 19.6022727272727  31 19.3534746503496  31 19.0745192307692  L 31 13.3446241258741  Z M 5.96153846153841 7  C 5.96153846153841 6.33304195804191  7.97355769230773 1.80944055944061  10.5817307692307 1.80944055944061  L 20.4182692307693 1.80944055944061  C 23.4362980769232 1.80944055944061  25.0384615384616 6.33304195804191  25.0384615384616 7  L 5.96153846153841 7  Z M 7.15384615384614 14.7544798951048  C 7.15384615384614 16.081402972028  6.08822115384614 17.1670673076923  4.76923076923068 17.1670673076923  C 3.45024038461546 17.1670673076923  2.38461538461546 16.0889423076923  2.38461538461546 14.7544798951048  C 2.38461538461546 13.4200174825175  3.45024038461546 12.3418924825175  4.76923076923068 12.3418924825175  C 6.08822115384614 12.3418924825175  7.15384615384614 13.4200174825175  7.15384615384614 14.7544798951048  Z M 19.6730769230768 13.5708041958041  C 20.3288461538461 13.5708041958041  20.8653846153845 14.1136363636364  20.8653846153845 14.7770979020979  C 20.8653846153845 15.4405594405594  20.3288461538461 15.9833916083916  19.6730769230768 15.9833916083916  L 11.3269230769232 15.9833916083916  C 10.6711538461539 15.9833916083916  10.1346153846155 15.4405594405594  10.1346153846155 14.7770979020979  C 10.1346153846155 14.1136363636364  10.6711538461539 13.5708041958041  11.3269230769232 13.5708041958041  L 19.6730769230768 13.5708041958041  Z M 28.6153846153845 14.7770979020979  C 28.6153846153845 16.1115603146852  27.5497596153845 17.1896853146852  26.2307692307693 17.1896853146852  C 24.9117788461539 17.1896853146852  23.8461538461539 16.1115603146852  23.8461538461539 14.7770979020979  C 23.8461538461539 13.4426354895105  24.9117788461539 12.3645104895105  26.2307692307693 12.3645104895105  C 27.5497596153845 12.3645104895105  28.6153846153845 13.4426354895105  28.6153846153845 14.7770979020979  Z M 7.97355769230773 22.9195804195804  C 8.44302884615387 22.9195804195804  8.34615384615386 21.9243881118881  8.34615384615386 21.1101398601398  C 4.77668269230773 21.1101398601398  1.19230769230773 20.733173076923  1.19230769230773 20.733173076923  C 1.19230769230773 22.0148601398601  1.16995192307681 22.9195804195804  1.63942307692319 22.9195804195804  L 7.97355769230773 22.9195804195804  Z M 23.0264423076923 22.9195804195804  C 22.5271634615384 22.9195804195804  22.6538461538461 21.901770104895  22.6538461538461 21.1101398601398  C 26.2307692307693 21.1101398601398  29.8076923076923 20.733173076923  29.8076923076923 20.733173076923  C 29.8076923076923 21.9394667832168  29.9567307692307 22.9195804195804  29.4350961538461 22.9195804195804  L 23.0264423076923 22.9195804195804  Z " fill-rule="nonzero" fill="#ffffff" stroke="none" transform="matrix(1 0 0 1 836 17 )" />
  </g>
</svg>