<?xml version="1.0" encoding="utf-8"?>
<svg version="1.1" xmlns:xlink="http://www.w3.org/1999/xlink" width="51px" height="40px" xmlns="http://www.w3.org/2000/svg">
  <g transform="matrix(1 0 0 1 -318 -461 )">
    <path d="M 49.9375 40  C 50.61484375 40  51.11953125 39.5104166666667  50.9734375 38.9895833333333  C 50.0171875 35.6770833333333  44.55859375 34.0625  42.67265625 33.5416666666667  C 40.60078125 32.96875  37.65234375 32.8333333333333  35.753125 32.5  C 34.6640625 32.3125  33.08359375 31.84375  32.55234375 31.34375  C 32.02109375 30.84375  32.33984375 26.2083333333333  32.33984375 26.2083333333333  C 32.33984375 26.2083333333333  33.32265625 25.0104166666667  33.85390625 23.9479166666667  C 34.38515625 22.8958333333333  34.96953125 20  34.96953125 20  C 34.96953125 20  36.05859375 20  36.44375 18.5  C 36.85546875 16.8645833333333  37.50625 16.2291666666667  37.4265625 15.0104166666667  C 37.346875 13.8125  36.51015625 13.84375  36.51015625 13.84375  C 36.51015625 13.84375  37.3203125 12.1041666666667  37.41328125 8.5  C 37.5328125 4.21875  33.25625 0  25.51328125 0  C 17.6640625 0  13.48046875 4.21875  13.6 8.5  C 13.70625 12.1041666666667  14.48984375 13.84375  14.48984375 13.84375  C 14.48984375 13.84375  13.653125 13.8125  13.5734375 15.0104166666667  C 13.49375 16.2291666666667  14.14453125 16.8645833333333  14.55625 18.5  C 14.928125 20  16.03046875 20  16.03046875 20  C 16.03046875 20  16.61484375 22.8958333333333  17.14609375 23.9479166666667  C 17.67734375 25.0104166666667  18.66015625 26.2083333333333  18.66015625 26.2083333333333  C 18.66015625 26.2083333333333  18.97890625 30.84375  18.44765625 31.34375  C 17.91640625 31.84375  16.3359375 32.3125  15.246875 32.5  C 13.34765625 32.8333333333333  10.39921875 32.96875  8.32734375 33.5416666666667  C 6.44140625 34.0625  0.9828125 35.6770833333333  0.0265625 38.9895833333333  C -0.11953125 39.5104166666667  0.38515625 40  1.07578125 40  L 49.9375 40  Z " fill-rule="nonzero" fill="#606266" stroke="none" transform="matrix(1 0 0 1 318 461 )" />
  </g>
</svg>