<?xml version="1.0" encoding="utf-8"?>
<svg version="1.1" xmlns:xlink="http://www.w3.org/1999/xlink" width="8px" height="5px" xmlns="http://www.w3.org/2000/svg">
  <g transform="matrix(1 0 0 1 -397 -509 )">
    <path d="M 7.78341463414636 0.0595528455284011  L 7.92156097560976 0.20325203252033  C 7.99773306113814 0.282621921033789  7.99773306113814 0.411280517990728  7.92156097560976 0.490650406504187  L 4.12741463414634 4.44308943089425  C 4.09081594982588 4.48125549655098  4.04115302401933 4.50270053992199  3.98936585365852 4.50270053992199  C 3.93757868329776 4.50270053992199  3.88791575749117 4.48125549655098  3.85131707317073 4.44308943089425  L 0.0571707317073333 0.490650406504187  C -0.0190013538210451 0.411280517990728  -0.0190013538210451 0.282621921033789  0.0571707317073333 0.20325203252033  L 0.195121951219517 0.0595528455284011  C 0.271317044192347 -0.0197930768968035  0.394829297271076 -0.0197930768968035  0.471024390243906 0.0595528455284011  L 3.98926829268291 3.72439024390246  L 7.50770731707319 0.0595528455284011  C 7.58390241004602 -0.0197930768968035  7.70741466312472 -0.0197930768968035  7.78360975609755 0.0595528455284011  Z " fill-rule="nonzero" fill="#909399" stroke="none" fill-opacity="0.647058823529412" transform="matrix(1 0 0 1 397 509 )" />
  </g>
</svg>