<?xml version="1.0" encoding="utf-8"?>
<svg version="1.1" xmlns:xlink="http://www.w3.org/1999/xlink" width="84px" height="24px" xmlns="http://www.w3.org/2000/svg">
  <g transform="matrix(1 0 0 1 -226 -214 )">
    <path d="M 268 214  C 291.52 214  310 219.28  310 226  C 310 232.72  291.52 238  268 238  C 244.48 238  226 232.72  226 226  C 226 219.28  244.48 214  268 214  Z " fill-rule="nonzero" fill="#ffffff" stroke="none" fill-opacity="0" />
    <path d="M 268 214.5  C 291.24 214.5  309.5 219.56  309.5 226  C 309.5 232.44  291.24 237.5  268 237.5  C 244.76 237.5  226.5 232.44  226.5 226  C 226.5 219.56  244.76 214.5  268 214.5  Z " stroke-width="1" stroke="#797979" fill="none" />
  </g>
</svg>