<?xml version="1.0" encoding="utf-8"?>
<svg version="1.1" xmlns:xlink="http://www.w3.org/1999/xlink" width="84px" height="31px" xmlns="http://www.w3.org/2000/svg">
  <defs>
    <mask fill="white" id="clip13">
      <path d="M 0 27  L 0 4  C 0 1.75999999999999  1.75999999999999 0  4 0  L 33.4202898550725 0  L 84 0  L 84 31  L 4 31  C 1.75999999999999 31  0 29.24  0 27  Z " fill-rule="evenodd" />
    </mask>
  </defs>
  <g transform="matrix(1 0 0 1 -224 -471 )">
    <path d="M 0 27  L 0 4  C 0 1.75999999999999  1.75999999999999 0  4 0  L 33.4202898550725 0  L 84 0  L 84 31  L 4 31  C 1.75999999999999 31  0 29.24  0 27  Z " fill-rule="nonzero" fill="#f2f2f2" stroke="none" transform="matrix(1 0 0 1 224 471 )" />
    <path d="M 0 27  L 0 4  C 0 1.75999999999999  1.75999999999999 0  4 0  L 33.4202898550725 0  L 84 0  L 84 31  L 4 31  C 1.75999999999999 31  0 29.24  0 27  Z " stroke-width="2" stroke="#c0c4cc" fill="none" transform="matrix(1 0 0 1 224 471 )" mask="url(#clip13)" />
  </g>
</svg>