<?xml version="1.0" encoding="utf-8"?>
<svg version="1.1" xmlns:xlink="http://www.w3.org/1999/xlink" width="50px" height="29px" xmlns="http://www.w3.org/2000/svg">
  <defs>
    <mask fill="white" id="clip16">
      <path d="M 0 29  L 0 0  L 23.4470348928181 0  L 47.4025974025974 0  C 48.8571428571429 0  50 1.76000000000001  50 4  L 50 25  C 50 27.24  48.8571428571429 29  47.4025974025974 29  L 0 29  Z " fill-rule="evenodd" />
    </mask>
  </defs>
  <g transform="matrix(1 0 0 1 -665 -118 )">
    <path d="M 0 29  L 0 0  L 23.4470348928181 0  L 47.4025974025974 0  C 48.8571428571429 0  50 1.76000000000001  50 4  L 50 25  C 50 27.24  48.8571428571429 29  47.4025974025974 29  L 0 29  Z " fill-rule="nonzero" fill="#5ea7ea" stroke="none" transform="matrix(1 0 0 1 665 118 )" />
    <path d="M 0 29  L 0 0  L 23.4470348928181 0  L 47.4025974025974 0  C 48.8571428571429 0  50 1.76000000000001  50 4  L 50 25  C 50 27.24  48.8571428571429 29  47.4025974025974 29  L 0 29  Z " stroke-width="2" stroke="#c0c4cc" fill="none" transform="matrix(1 0 0 1 665 118 )" mask="url(#clip16)" />
  </g>
</svg>